PathFileType	4	(X/Y/Z)	/Volumes/GoogleDrive/My Drive/Research/Stanford/Projects/Digital Athlete Project/Sprinting/Sprint Simulation/sprinter/subjects/JA1/experimental_data/TRC/static.trc
DataRate	CameraRate	NumFrames	NumMarkers	Units	OrigDataRate	OrigDataStartFrame	OrigNumFrames
250.000000	250.000000	4	57	mm	250.000000	162	646
Frame#	Time	C7			RSH			LSH			MAN			T7			LARM			LELB			LFOREARM			LWR			RARM			RELB			RFOREARM			RWR			RASI			LASI			SACR			P1			P2			P3			LTHLP			LTHLD			LTHAP			LTHAD			LLEPI			LPAT			LMEPI			LTIAP			LTIAD			LTILAT			LLMAL			LMMAL			LHEEL			LMFS			LMFL			LP1MT			LTOE			LP5MT			RTHLP			RTHLD			RTHAP			RTHAD			RLEPI			RPAT			RMEPI			RTIAP			RTIAD			RTILAT			RLMAL			RMMAL			RHEEL			RMFS			RMFL			RP1MT			RTOE			RP5MT			x56			x57			
		X1	Y1	Z1	X2	Y2	Z2	X3	Y3	Z3	X4	Y4	Z4	X5	Y5	Z5	X6	Y6	Z6	X7	Y7	Z7	X8	Y8	Z8	X9	Y9	Z9	X10	Y10	Z10	X11	Y11	Z11	X12	Y12	Z12	X13	Y13	Z13	X14	Y14	Z14	X15	Y15	Z15	X16	Y16	Z16	X17	Y17	Z17	X18	Y18	Z18	X19	Y19	Z19	X20	Y20	Z20	X21	Y21	Z21	X22	Y22	Z22	X23	Y23	Z23	X24	Y24	Z24	X25	Y25	Z25	X26	Y26	Z26	X27	Y27	Z27	X28	Y28	Z28	X29	Y29	Z29	X30	Y30	Z30	X31	Y31	Z31	X32	Y32	Z32	X33	Y33	Z33	X34	Y34	Z34	X35	Y35	Z35	X36	Y36	Z36	X37	Y37	Z37	X38	Y38	Z38	X39	Y39	Z39	X40	Y40	Z40	X41	Y41	Z41	X42	Y42	Z42	X43	Y43	Z43	X44	Y44	Z44	X45	Y45	Z45	X46	Y46	Z46	X47	Y47	Z47	X48	Y48	Z48	X49	Y49	Z49	X50	Y50	Z50	X51	Y51	Z51	X52	Y52	Z52	X53	Y53	Z53	X54	Y54	Z54	X55	Y55	Z55	X56	Y56	Z56	X57	Y57	Z57	
162	0.648000	-691.430298	1567.613525	316.281036	-651.403320	1558.121704	480.978790	-689.679016	1553.628418	161.972397	-540.553833	1483.149536	313.241608	-748.405457	1373.932373	324.585297	-711.210754	1375.652954	45.438503	-731.191772	1251.002686	-11.325009	-685.805786	1142.752686	-98.273895	-665.785583	1018.676880	-159.581619	-670.111938	1388.964355	592.513855	-699.809082	1264.469360	657.436707	-657.777527	1154.844360	741.836365	-639.892090	1032.906250	805.722656	-533.153198	1086.719727	404.966187	-560.324585	1091.204102	189.474396	-730.521667	1134.542236	324.371735	-751.689514	1108.511597	273.355103	-741.177124	1104.832764	378.990967	-775.846252	1050.686646	327.191559	-670.665039	799.103271	110.201309	-666.581238	685.013611	116.021606	-537.152100	784.188354	175.815170	-558.053467	675.285889	182.438736	-661.126526	559.417725	125.779892	-580.955750	561.223694	187.069290	-660.981445	541.888855	251.492783	-644.641785	381.875305	190.280167	-660.097778	243.975327	182.555435	-696.156372	321.508667	110.134804	-701.720703	102.715942	122.159416	-680.482544	112.843872	215.008911	-765.411743	61.263962	166.420013	-600.500061	94.610939	169.754868	-628.643433	69.678688	107.244232	-553.271362	46.332066	202.726532	-497.734436	58.649109	164.095856	-576.819397	36.017925	78.742157	-632.190430	824.971375	518.235840	-635.530273	711.321106	512.691162	-529.161072	782.705322	427.505280	-550.083313	686.246826	423.547699	-653.052063	559.521240	492.910889	-585.315186	550.944153	429.179657	-686.245300	544.309692	369.638641	-658.824524	343.996368	421.834686	-673.620544	217.960617	415.724823	-694.259827	338.151337	508.527435	-695.609070	102.475594	482.215790	-684.611755	112.979919	388.446411	-765.439941	59.094963	441.660431	-592.638184	98.035126	432.326569	-629.362732	69.547821	491.376770	-554.407837	49.194759	388.714081	-494.148132	59.222881	426.268524	-569.823242	40.671085	515.941589	-655.610291	955.615295	-190.741287	-629.889954	964.714233	841.450134
163	0.652000	-691.559448	1567.572266	316.283386	-651.439758	1558.142700	481.010254	-689.648010	1553.529053	161.737000	-540.580811	1483.172363	313.353210	-748.527832	1373.948853	324.651581	-711.278625	1375.632935	45.466000	-731.331726	1251.025146	-11.295260	-685.739441	1142.720825	-98.419609	-665.755920	1018.660767	-159.669388	-670.144348	1388.976563	592.478149	-699.782349	1264.480103	657.476318	-657.775146	1154.841797	741.871826	-639.880005	1032.923584	805.747864	-533.190125	1086.731689	404.991119	-560.427002	1091.279175	189.665192	-730.618408	1134.503906	324.391602	-751.735107	1108.548950	273.419342	-736.358826	1104.058350	378.618347	-775.888855	1050.652222	327.180145	-670.662170	799.092102	110.208542	-666.583923	685.027222	115.986404	-537.159119	784.202271	175.996216	-558.078186	675.299866	182.497421	-661.051208	559.473572	125.764938	-580.948425	561.184204	187.126404	-660.977295	541.871094	251.471863	-644.517517	381.848236	190.085388	-660.098877	243.937042	182.502106	-696.237976	321.319153	110.236359	-701.686707	102.749954	122.087746	-680.476379	112.865807	215.024933	-765.525391	61.214207	166.578110	-600.395630	94.678085	169.581177	-628.650391	69.695908	107.287819	-553.272888	46.372372	202.737686	-497.764740	58.629940	164.212448	-576.742004	35.980465	78.683807	-632.212891	824.993958	518.298035	-635.552612	711.339539	512.700317	-529.144775	782.709229	427.530884	-550.101135	686.239929	423.522247	-653.038452	559.569458	493.016205	-585.337830	550.917847	429.173920	-686.278564	544.293762	369.686676	-658.841797	344.102844	421.752319	-673.725098	217.902695	415.827362	-694.215576	338.154480	508.575043	-695.268921	102.731117	482.456024	-684.807739	112.933411	388.651825	-765.471619	59.030308	441.695068	-592.583801	97.992912	432.173737	-629.307922	69.623764	491.438629	-554.399658	49.116150	388.757599	-494.145630	59.236504	426.313507	-569.835693	40.658882	515.937622	-655.599304	955.607239	-190.799591	-629.872437	964.742554	841.469604
164	0.656000	-691.593750	1567.581665	316.308960	-651.484314	1558.116577	480.948029	-689.733032	1553.503296	161.804230	-540.623291	1483.220093	313.383392	-748.473816	1373.888672	324.614044	-711.281189	1375.655884	45.449726	-731.231812	1250.948730	-11.152474	-685.844543	1142.744263	-98.230133	-665.793396	1018.659973	-159.570190	-670.186768	1389.029175	592.497864	-699.857849	1264.452515	657.471558	-657.752075	1154.860474	741.838440	-639.861511	1032.949341	805.769775	-533.219788	1086.734009	405.042542	-560.445862	1091.177612	189.530701	-730.584229	1134.490112	324.468750	-751.766296	1108.585205	273.441833	-736.386780	1104.096313	378.582642	-775.913269	1050.668457	327.229126	-670.665222	799.088928	110.215538	-666.593628	685.014282	116.063034	-537.124207	784.177246	175.865540	-558.040161	675.308533	182.557327	-660.927429	559.415894	125.562462	-580.931580	561.197693	187.116821	-660.956360	541.871582	251.529114	-644.604675	381.814453	190.197845	-660.108093	243.939529	182.578247	-696.249573	321.330231	110.239334	-701.719910	102.744293	122.097527	-680.463623	112.856850	215.028702	-765.529114	61.170921	166.575897	-600.471313	94.618858	169.692062	-628.603333	69.749916	107.236382	-553.282104	46.381981	202.738831	-497.787598	58.632011	164.187592	-576.754639	35.998104	78.706848	-632.235596	824.973755	518.254761	-635.539856	711.347351	512.723389	-529.157593	782.738403	427.511719	-550.111572	686.249023	423.495392	-653.078125	559.587341	492.960144	-585.308899	550.935974	429.197418	-686.250793	544.313538	369.693878	-658.836914	344.036682	421.808014	-673.633423	217.958542	415.738037	-694.204041	338.143585	508.593842	-695.594299	102.468330	482.213104	-684.534973	112.991043	388.335480	-765.430481	59.121952	441.641846	-592.578308	98.047028	432.395477	-629.329834	69.593529	491.432861	-554.374329	49.061295	388.709412	-494.160675	59.232338	426.298859	-569.824707	40.671692	515.950195	-655.602417	955.594116	-190.746277	-629.856506	964.772400	841.522400
165	0.660000	-691.637390	1567.657471	316.297119	-651.475159	1558.148682	480.967346	-689.899170	1553.608276	161.938583	-540.666687	1483.174072	313.295624	-748.484253	1373.923828	324.620422	-711.316284	1375.601196	45.475704	-731.226746	1250.899902	-11.148340	-685.825195	1142.733032	-98.272789	-665.779114	1018.668518	-159.583008	-670.136536	1389.031250	592.553955	-699.835815	1264.481812	657.504150	-657.708496	1154.921875	741.945129	-639.826355	1032.981812	805.826782	-533.288269	1086.755859	405.062469	-560.626038	1091.287476	189.811798	-730.618652	1134.498901	324.472443	-751.792053	1108.479248	273.498108	-741.198181	1104.759033	379.131470	-775.947998	1050.634033	327.282227	-670.669006	799.089600	110.220779	-666.585876	685.000549	116.047722	-537.218567	784.229614	176.095459	-558.022888	675.296509	182.523956	-660.927551	559.476562	125.608360	-580.937378	561.242371	187.094208	-660.959961	541.882507	251.532837	-644.545349	381.831757	190.245193	-660.185181	243.862167	182.680023	-696.266724	321.348938	110.249222	-701.755066	102.761971	122.082108	-680.438354	112.863586	215.036728	-765.526855	61.203262	166.536484	-600.463135	94.666824	169.736832	-628.661255	69.726616	107.300400	-553.356262	46.356689	202.650833	-497.783569	58.652996	164.145386	-576.788330	35.944729	78.690483	-632.275879	825.013306	518.346191	-635.570068	711.333130	512.701111	-529.168579	782.710938	427.566650	-550.133972	686.269958	423.593384	-653.061707	559.521240	492.980621	-585.320374	550.941772	429.175568	-686.246704	544.349243	369.665955	-658.826294	344.057800	421.801788	-673.683289	217.968185	415.760040	-694.274231	338.156403	508.583710	-695.170349	102.832527	482.577606	-684.691162	112.943359	388.523682	-765.480957	59.035637	441.645203	-592.575867	97.982422	432.414795	-629.364990	69.577362	491.382141	-554.399109	49.118740	388.661346	-494.185364	59.154346	426.206177	-569.819946	40.666222	515.957825	-655.590698	955.612671	-190.743927	-629.826050	964.788635	841.551697
